# xmcd
#
# Track frame offsets:
#	150
#	9501
#	32500
#	49141
#	60694
#	77213
#	92588
#	104272
#	122788
#	135667
#	148504
#	168466
#	179697
#	196140
#	208698
#	223663
#	247179
#	265714
#	283011
#	297264
#
# Disc length: 4190 seconds
#
# Revision: 1
# Processed by: cddbd v1.5.1PL2 Copyright (c) Steve Scherf et al.
# Submitted via: EasyCDDAExtractor 9.1.3.1
#
DISCID=2f105c14
DTITLE=Gilbert Bécaud - 40 ans en chansons
DYEAR=1993
DGENRE=Country
TTITLE0=Quand tu danses
TTITLE1=Le pianiste de Varsovie
TTITLE2=Les marchés de Provence
TTITLE3=Je veux te dire adieu
TTITLE4=Et maintenant
TTITLE5=Dimanche à Orly
TTITLE6=Quand Jules est au violon
TTITLE7=Nathalie
TTITLE8=L'orange
TTITLE9=Tu le regretteras
TTITLE10=T'es venu de loin
TTITLE11=Quand il est mort le poête
TTITLE12=L'important c'est la rose
TTITLE13=Le petit oiseau de toute les couleurs
TTITLE14=La solitude, ça n'existe pas
TTITLE15=Charlie, t'iras pas au paradis
TTITLE16=L'indiffèrence
TTITLE17=Dèsirèe
TTITLE18=C'ètait mon copain
TTITLE19=C'est en septembre
EXTD=
EXTT0=
EXTT1=
EXTT2=
EXTT3=
EXTT4=
EXTT5=
EXTT6=
EXTT7=
EXTT8=
EXTT9=
EXTT10=
EXTT11=
EXTT12=
EXTT13=
EXTT14=
EXTT15=
EXTT16=
EXTT17=
EXTT18=
EXTT19=
PLAYORDER=
